HIERARCHY
ROOT Hips
{
  OFFSET 377.763 88.2609 174.383
  CHANNELS 6 Xposition Yposition Zposition Zrotation Xrotation Yrotation
  JOINT RightUpLeg
  {
    OFFSET -9.30536 -1.56319 -0.0308412
    CHANNELS 3 Zrotation Xrotation Yrotation
    JOINT RightLeg
    {
      OFFSET -0.0509473 -41.8867 0.0408735
      CHANNELS 3 Zrotation Xrotation Yrotation
      JOINT RightFoot
      {
        OFFSET -0.135761 -42.7852 -0.897951
        CHANNELS 3 Zrotation Xrotation Yrotation
        End Site
        {
          OFFSET 0 -7.69 17.5
        }
      }
    }
  }
  JOINT LeftUpLeg
  {
    OFFSET 9.25165 -1.62789 -0.00729124
    CHANNELS 3 Zrotation Xrotation Yrotation
    JOINT LeftLeg
    {
      OFFSET 0.024936 -41.8804 0.00207043
      CHANNELS 3 Zrotation Xrotation Yrotation
      JOINT LeftFoot
      {
        OFFSET 0.245063 -40.7505 0.529473
        CHANNELS 3 Zrotation Xrotation Yrotation
        End Site
        {
          OFFSET 0 -7.69 17.5
        }
      }
    }
  }
  JOINT Spine
  {
    OFFSET 0.0381636 14.2969 0.0214663
    CHANNELS 3 Zrotation Xrotation Yrotation
    JOINT Spine1
    {
      OFFSET 0.0273681 9.71499 0.0100001
      CHANNELS 3 Zrotation Xrotation Yrotation
      JOINT Spine2
      {
        OFFSET 0.029022 10.1215 -0.000399631
        CHANNELS 3 Zrotation Xrotation Yrotation
        JOINT Spine3
        {
          OFFSET 0.0290531 9.71322 0.0107928
          CHANNELS 3 Zrotation Xrotation Yrotation
          JOINT Neck
          {
            OFFSET 0.0830829 10.3832 0.0498053
            CHANNELS 3 Zrotation Xrotation Yrotation
            JOINT Head
            {
              OFFSET 0.0700972 9.47827 0.0499309
              CHANNELS 3 Zrotation Xrotation Yrotation
              End Site
              {
                OFFSET 0 15.95 0
              }
            }
          }
          JOINT RightShoulder
          {
            OFFSET -3.16088 6.93633 0.0290789
            CHANNELS 3 Zrotation Xrotation Yrotation
            JOINT RightArm
            {
              OFFSET -12.7509 0.028765 0.0682708
              CHANNELS 3 Zrotation Xrotation Yrotation
              JOINT RightForeArm
              {
                OFFSET -26.5067 -0.0728143 0.13822
                CHANNELS 3 Zrotation Xrotation Yrotation
                JOINT RightHand
                {
                  OFFSET -25.9897 -0.0664148 0.00141744
                  CHANNELS 3 Zrotation Xrotation Yrotation
                  JOINT RightHandThumb1
                  {
                    OFFSET -2.48905 0.190105 3.12053
                    CHANNELS 3 Zrotation Xrotation Yrotation
                    JOINT RightHandThumb2
                    {
                      OFFSET -3.68274 0 0
                      CHANNELS 3 Zrotation Xrotation Yrotation
                      JOINT RightHandThumb3
                      {
                        OFFSET -2.55832 0 0
                        CHANNELS 3 Zrotation Xrotation Yrotation
                        End Site
                        {
                          OFFSET -2.194 0 0
                        }
                      }
                    }
                  }
                  JOINT RightInHandIndex
                  {
                    OFFSET -3.22368 0.508421 1.97842
                    CHANNELS 3 Zrotation Xrotation Yrotation
                    JOINT RightHandIndex1
                    {
                      OFFSET -5.21684 -0.091368 0.999158
                      CHANNELS 3 Zrotation Xrotation Yrotation
                      JOINT RightHandIndex2
                      {
                        OFFSET -3.61937 0 0
                        CHANNELS 3 Zrotation Xrotation Yrotation
                        JOINT RightHandIndex3
                        {
                          OFFSET -2.0521 0 0
                          CHANNELS 3 Zrotation Xrotation Yrotation
                          End Site
                          {
                            OFFSET -1.805 0 0
                          }
                        }
                      }
                    }
                  }
                  JOINT RightInHandMiddle
                  {
                    OFFSET -3.38211 0.517263 0.756737
                    CHANNELS 3 Zrotation Xrotation Yrotation
                    JOINT RightHandMiddle1
                    {
                      OFFSET -5.17411 -0.084 0.313895
                      CHANNELS 3 Zrotation Xrotation Yrotation
                      JOINT RightHandMiddle2
                      {
                        OFFSET -3.94947 0 0
                        CHANNELS 3 Zrotation Xrotation Yrotation
                        JOINT RightHandMiddle3
                        {
                          OFFSET -2.47579 0 0
                          CHANNELS 3 Zrotation Xrotation Yrotation
                          End Site
                          {
                            OFFSET -1.975 0 0
                          }
                        }
                      }
                    }
                  }
                  JOINT RightInHandRing
                  {
                    OFFSET -3.36516 0.537895 -0.128947
                    CHANNELS 3 Zrotation Xrotation Yrotation
                    JOINT RightHandRing1
                    {
                      OFFSET -4.63474 -0.022105 -0.478947
                      CHANNELS 3 Zrotation Xrotation Yrotation
                      JOINT RightHandRing2
                      {
                        OFFSET -3.44238 0 0
                        CHANNELS 3 Zrotation Xrotation Yrotation
                        JOINT RightHandRing3
                        {
                          OFFSET -2.3881 0 0
                          CHANNELS 3 Zrotation Xrotation Yrotation
                          End Site
                          {
                            OFFSET -1.857 0 0
                          }
                        }
                      }
                    }
                  }
                  JOINT RightInHandPinky
                  {
                    OFFSET -3.16105 0.469368 -1.20179
                    CHANNELS 3 Zrotation Xrotation Yrotation
                    JOINT RightHandPinky1
                    {
                      OFFSET -4.14105 -0.022105 -1.09053
                      CHANNELS 3 Zrotation Xrotation Yrotation
                      JOINT RightHandPinky2
                      {
                        OFFSET -2.75653 0 0
                        CHANNELS 3 Zrotation Xrotation Yrotation
                        JOINT RightHandPinky3
                        {
                          OFFSET -1.74189 0 0
                          CHANNELS 3 Zrotation Xrotation Yrotation
                          End Site
                          {
                            OFFSET -1.645 0 0
                          }
                        }
                      }
                    }
                  }
                }
              }
            }
          }
          JOINT LeftShoulder
          {
            OFFSET 3.23403 6.91572 -0.0126821
            CHANNELS 3 Zrotation Xrotation Yrotation
            JOINT LeftArm
            {
              OFFSET 12.8488 -0.0444641 -0.0528339
              CHANNELS 3 Zrotation Xrotation Yrotation
              JOINT LeftForeArm
              {
                OFFSET 26.4942 -0.0237746 -0.09002
                CHANNELS 3 Zrotation Xrotation Yrotation
                JOINT LeftHand
                {
                  OFFSET 25.9989 -0.00653758 -0.026747
                  CHANNELS 3 Zrotation Xrotation Yrotation
                  JOINT LeftHandThumb1
                  {
                    OFFSET 2.48905 0.190105 3.12053
                    CHANNELS 3 Zrotation Xrotation Yrotation
                    JOINT LeftHandThumb2
                    {
                      OFFSET 3.68274 0 0
                      CHANNELS 3 Zrotation Xrotation Yrotation
                      JOINT LeftHandThumb3
                      {
                        OFFSET 2.55832 0 0
                        CHANNELS 3 Zrotation Xrotation Yrotation
                        End Site
                        {
                          OFFSET 2.194 0 0
                        }
                      }
                    }
                  }
                  JOINT LeftInHandIndex
                  {
                    OFFSET 3.22368 0.508421 1.97842
                    CHANNELS 3 Zrotation Xrotation Yrotation
                    JOINT LeftHandIndex1
                    {
                      OFFSET 5.21684 -0.091368 0.999158
                      CHANNELS 3 Zrotation Xrotation Yrotation
                      JOINT LeftHandIndex2
                      {
                        OFFSET 3.61937 0 0
                        CHANNELS 3 Zrotation Xrotation Yrotation
                        JOINT LeftHandIndex3
                        {
                          OFFSET 2.0521 0 0
                          CHANNELS 3 Zrotation Xrotation Yrotation
                          End Site
                          {
                            OFFSET 1.805 0 0
                          }
                        }
                      }
                    }
                  }
                  JOINT LeftInHandMiddle
                  {
                    OFFSET 3.38211 0.517263 0.756737
                    CHANNELS 3 Zrotation Xrotation Yrotation
                    JOINT LeftHandMiddle1
                    {
                      OFFSET 5.17411 -0.084 0.313895
                      CHANNELS 3 Zrotation Xrotation Yrotation
                      JOINT LeftHandMiddle2
                      {
                        OFFSET 3.94947 0 0
                        CHANNELS 3 Zrotation Xrotation Yrotation
                        JOINT LeftHandMiddle3
                        {
                          OFFSET 2.47579 0 0
                          CHANNELS 3 Zrotation Xrotation Yrotation
                          End Site
                          {
                            OFFSET 1.975 0 0
                          }
                        }
                      }
                    }
                  }
                  JOINT LeftInHandRing
                  {
                    OFFSET 3.36516 0.537895 -0.128947
                    CHANNELS 3 Zrotation Xrotation Yrotation
                    JOINT LeftHandRing1
                    {
                      OFFSET 4.63474 -0.022105 -0.478947
                      CHANNELS 3 Zrotation Xrotation Yrotation
                      JOINT LeftHandRing2
                      {
                        OFFSET 3.44238 0 0
                        CHANNELS 3 Zrotation Xrotation Yrotation
                        JOINT LeftHandRing3
                        {
                          OFFSET 2.3881 0 0
                          CHANNELS 3 Zrotation Xrotation Yrotation
                          End Site
                          {
                            OFFSET 1.857 0 0
                          }
                        }
                      }
                    }
                  }
                  JOINT LeftInHandPinky
                  {
                    OFFSET 3.16105 0.469368 -1.20179
                    CHANNELS 3 Zrotation Xrotation Yrotation
                    JOINT LeftHandPinky1
                    {
                      OFFSET 4.14105 -0.022105 -1.09053
                      CHANNELS 3 Zrotation Xrotation Yrotation
                      JOINT LeftHandPinky2
                      {
                        OFFSET 2.75653 0 0
                        CHANNELS 3 Zrotation Xrotation Yrotation
                        JOINT LeftHandPinky3
                        {
                          OFFSET 1.74189 0 0
                          CHANNELS 3 Zrotation Xrotation Yrotation
                          End Site
                          {
                            OFFSET 1.645 0 0
                          }
                        }
                      }
                    }
                  }
                }
              }
            }
          }
        }
      }
    }
  }
}
MOTION
Frames: 3
Frame Time: 0.00833333
4.500512376005777924e+02 1.875880938564769649e-03 1.540861443306872905e-03 1.676221113821117423e-02 -5.369007426553784601e-02 -1.176891977817671325e-01 -9.929104874393233915e-02 -5.360993330103829696e-02 -2.293788517971066809e-01 6.387262274623103919e-02 2.386498033233615951e-02 1.030576895350033967e-01 -7.696714373372876006e-02 4.771391840864443179e-02 1.333760926272758440e-01 1.894947093779608335e-02 1.012031985714701918e-02 5.022359547186190654e-02 1.518158635595037997e-01 -5.700298176888979329e-02 -1.801836882058157341e-01 -3.554873405328661667e-02 5.001404315236037540e-02 2.029230042047318328e-01 -9.966351772731077419e-02 3.731387952565373700e-02 1.786596495912662896e-01 -2.178286829907817579e-02 1.396563885553562916e-02 4.201040291565529688e-02 -3.647825718997485533e-02 2.160719464948852170e-02 6.674334007321346129e-02 -2.959701236326378517e-03 3.163409320843431089e-03 -2.289301175034787975e-03 -7.752387379291241984e-03 -4.864583837431230712e-03 1.862768239737133333e-02 -5.330427420888612933e-02 -6.969983022688157337e-02 -8.675168417591161418e-02 -6.197755178281824304e-03 -3.104849941977561034e-01 -1.775859422155890432e-01 -1.921548154931509433e-01 4.839252260821249041e-01 2.644708425277223548e-03 -1.533508815781339241e+00 3.504874454929151062e-01 -1.928078934754123619e+00 1.473600424189019931e-01 -1.571059219948937324e-01 -2.777292829051052070e-02 0.000000000000000000e+00 0.000000000000000000e+00 0.000000000000000000e+00 1.857118518646840030e-15 1.277303922405164870e-15 0.000000000000000000e+00 3.280823834427194717e-15 6.998454429339441057e-17 0.000000000000000000e+00 5.277789805190353076e-15 -1.250656999487210081e-15 -2.111370316473500440e-15 0.000000000000000000e+00 0.000000000000000000e+00 0.000000000000000000e+00 0.000000000000000000e+00 4.739557210993013922e-15 9.653871451888164370e-15 0.000000000000000000e+00 1.452834202103909011e-15 1.050552627138932607e-14 5.277789805190353076e-15 -1.250656999487210081e-15 -2.111370316473500440e-15 0.000000000000000000e+00 1.555494132917497736e-15 4.622158885451604286e-15 0.000000000000000000e+00 2.296803268707987311e-16 4.442363526540512055e-15 0.000000000000000000e+00 3.287843941893690458e-15 1.012530814896961117e-14 5.277789805190353076e-15 -1.250656999487210081e-15 -2.111370316473500440e-15 0.000000000000000000e+00 0.000000000000000000e+00 0.000000000000000000e+00 0.000000000000000000e+00 3.897608594114441411e-15 8.573094275547862971e-15 0.000000000000000000e+00 -1.646670036118650702e-15 -8.598142490493785185e-15 5.277789805190353076e-15 -1.250656999487210081e-15 -2.111370316473500440e-15 0.000000000000000000e+00 0.000000000000000000e+00 0.000000000000000000e+00 0.000000000000000000e+00 3.859887191222724350e-15 1.031567048850163026e-14 0.000000000000000000e+00 -7.078108116694625965e-15 -2.940406559169024628e-14 5.117746924928915503e-02 2.763530849453964960e-02 6.370975323280671232e-02 -6.788099641099737229e-03 8.618783254895542867e-02 -1.127643694840509553e-01 7.927554995030779150e-02 -1.178617625613866071e+00 1.055694456481006266e-01 7.971262208928119389e-03 -7.264194465382675658e-02 4.948265146365322942e-02 0.000000000000000000e+00 0.000000000000000000e+00 0.000000000000000000e+00 -3.227397762361773773e-15 2.030697318033879498e-15 0.000000000000000000e+00 -3.774823746153221744e-15 -4.612513147183520353e-15 0.000000000000000000e+00 1.541025136342791346e-15 -2.632760406469679159e-15 -1.313150008147662344e-15 0.000000000000000000e+00 0.000000000000000000e+00 0.000000000000000000e+00 0.000000000000000000e+00 -4.367558022769887141e-16 -4.993810380702348617e-15 0.000000000000000000e+00 3.798260754642213100e-15 -1.453701048362421853e-14 1.541025136342791346e-15 -2.632760406469679159e-15 -1.313150008147662344e-15 0.000000000000000000e+00 -7.191732513288828517e-16 -3.899184764062689194e-16 0.000000000000000000e+00 -1.572728341666839547e-15 -2.272474352760126520e-15 0.000000000000000000e+00 1.384361288815958673e-15 -1.017036542620962242e-14 1.541025136342791346e-15 -2.632760406469679159e-15 -1.313150008147662344e-15 0.000000000000000000e+00 0.000000000000000000e+00 0.000000000000000000e+00 0.000000000000000000e+00 1.595990516753138869e-15 -8.059323518383948161e-16 0.000000000000000000e+00 2.994638010986187013e-15 -1.016753429105163815e-14 1.541025136342791346e-15 -2.632760406469679159e-15 -1.313150008147662344e-15 0.000000000000000000e+00 0.000000000000000000e+00 0.000000000000000000e+00 0.000000000000000000e+00 1.007736286292324321e-15 -3.371424241841562543e-15 0.000000000000000000e+00 1.760678354393480098e-15 -1.417869830950099513e-14
4.500497486797905253e+02 -8.701248321318514950e-05 -4.941334285886714826e-03 3.371411164587741899e-02 -2.489547877192756914e-02 -2.338476409269712314e-02 -2.532333900426277373e-01 -6.167268663293141995e-02 -4.527595398264174231e-01 7.082090822302543331e-02 3.958552172653887619e-02 1.071481352907920487e-01 -8.947007508555690491e-02 4.650507817081248746e-02 1.461652004561494189e-01 -5.953584354690115432e-02 -4.099171006351126634e-02 -8.685519342594173742e-02 1.583141796521854994e-01 -6.918498481820356538e-02 -1.653030291391458517e-01 -4.017251512614102016e-02 5.971766599049357915e-02 1.924243905577875946e-01 -8.712463697800901241e-02 3.496381844395436006e-02 1.424874901165580632e-01 -1.910823477445941151e-02 1.412945582323430448e-02 3.329216526472577459e-02 -3.169108069885041845e-02 2.257383173732765286e-02 5.169590808252659542e-02 -4.957374337998118278e-04 2.567275542071309220e-03 -3.157088161860547703e-03 -2.963513367523131371e-03 -4.211279518441289962e-03 1.399010898532616551e-02 -1.083219341474380738e-02 -7.709782116753756409e-02 -9.817903652767394351e-02 -3.776679802694313595e-03 -3.383543280288210386e-01 -1.640227356520763402e-01 -3.521867777451478387e-01 7.416688473822626859e-01 9.615795965139556367e-02 -1.609130753632997735e+00 1.130057229256918178e-01 -1.669864341195803625e+00 1.348064630493177041e-01 -1.807101019013112042e-01 -1.880629864607604729e-01 0.000000000000000000e+00 0.000000000000000000e+00 0.000000000000000000e+00 1.973459821793918566e-15 9.922382291718199501e-16 0.000000000000000000e+00 3.908541888551013050e-15 -4.206325337022666487e-16 0.000000000000000000e+00 5.680569169566660638e-15 -1.123901699821048748e-15 -2.436023973282366376e-15 0.000000000000000000e+00 0.000000000000000000e+00 0.000000000000000000e+00 0.000000000000000000e+00 4.832007043536511500e-15 9.177791396202283313e-15 0.000000000000000000e+00 3.282032893270376393e-15 1.768640404691652305e-14 5.680569169566660638e-15 -1.123901699821048748e-15 -2.436023973282366376e-15 0.000000000000000000e+00 9.325482324943589149e-16 4.656041723171475156e-15 0.000000000000000000e+00 2.609776680050681364e-17 3.465299805488115731e-15 0.000000000000000000e+00 5.190385663857015795e-15 1.635614056381395933e-14 5.680569169566660638e-15 -1.123901699821048748e-15 -2.436023973282366376e-15 0.000000000000000000e+00 0.000000000000000000e+00 0.000000000000000000e+00 0.000000000000000000e+00 3.072304134205861115e-15 6.879798679776057902e-15 0.000000000000000000e+00 -7.652163031522007256e-16 -3.934977948149130634e-15 5.680569169566660638e-15 -1.123901699821048748e-15 -2.436023973282366376e-15 0.000000000000000000e+00 0.000000000000000000e+00 0.000000000000000000e+00 0.000000000000000000e+00 3.038481414319477469e-15 6.262702957516641456e-15 0.000000000000000000e+00 -6.079804708760128233e-15 -2.545559530031778214e-14 4.650890456844272713e-02 1.563910510567953147e-02 8.662852560090288090e-02 3.112684463653563327e-01 2.731285683023190747e-01 -5.256520447662564877e-01 5.812164705450469926e-01 -1.626788334012528869e+00 6.910306984791205753e-01 -5.501229773797081807e-02 4.751319069274057699e-02 3.670757452293180179e-02 0.000000000000000000e+00 0.000000000000000000e+00 0.000000000000000000e+00 -2.840077345826460262e-15 3.704301248207373186e-15 0.000000000000000000e+00 -3.913390590442165379e-15 -3.458092709290098605e-15 0.000000000000000000e+00 1.160050778465333472e-15 -2.589795214474202977e-15 -1.225466666156232424e-15 0.000000000000000000e+00 0.000000000000000000e+00 0.000000000000000000e+00 0.000000000000000000e+00 -2.866923949690967616e-16 -6.975403748286858995e-15 0.000000000000000000e+00 3.728856098190012614e-15 -1.472382488904107982e-14 1.160050778465333472e-15 -2.589795214474202977e-15 -1.225466666156232424e-15 0.000000000000000000e+00 -1.525217879376697480e-15 -1.055400771628432364e-15 0.000000000000000000e+00 -1.243974359042876623e-15 -3.672032355797514120e-15 0.000000000000000000e+00 8.986903962708862195e-16 -1.034817603166709342e-14 1.160050778465333472e-15 -2.589795214474202977e-15 -1.225466666156232424e-15 0.000000000000000000e+00 0.000000000000000000e+00 0.000000000000000000e+00 0.000000000000000000e+00 1.502750731460717843e-15 -1.889722236251280380e-15 0.000000000000000000e+00 3.366154245892806055e-15 -1.153510660739284273e-14 1.160050778465333472e-15 -2.589795214474202977e-15 -1.225466666156232424e-15 0.000000000000000000e+00 0.000000000000000000e+00 0.000000000000000000e+00 0.000000000000000000e+00 1.336757052081237518e-15 -3.889103392176885540e-15 0.000000000000000000e+00 1.912750646773349506e-15 -1.360814699894415287e-14
4.500474265183522675e+02 -1.757211907675599455e-03 -1.007936431127205018e-02 4.655557826319828979e-02 -1.524892918177967165e-03 5.196749803758185515e-02 -3.668946377677835269e-01 -6.713545303864661140e-02 -6.140317086305141503e-01 7.401398382331014769e-02 5.006879489891825907e-02 1.052811288221084246e-01 -9.728403288469276988e-02 4.528266419817259664e-02 1.522626099142628531e-01 -1.182518210699925465e-01 -7.902851579763686685e-02 -1.900569824608585867e-01 1.569762320444928472e-01 -7.818244238212353203e-02 -1.447310005068046246e-01 -4.283752566289458080e-02 6.628383127450986068e-02 1.732727968351470138e-01 -7.405471135276998906e-02 3.187631200509123686e-02 1.060859168177724493e-01 -1.632228469389532949e-02 1.374394825855261223e-02 2.449282690557029463e-02 -2.673973646202723597e-02 2.251554036514073417e-02 3.677413954984488920e-02 1.470832290253934428e-03 1.990322235577055791e-03 -3.417528593056040013e-03 1.359739903228314624e-03 -3.289996724722970764e-03 9.339215365274721597e-03 2.323571239121190873e-02 -7.942717393969420114e-02 -9.790047839257164097e-02 -2.306375562924353664e-03 -3.466063200263369004e-01 -1.444005579539302253e-01 -4.868384592560562885e-01 9.749506213932305210e-01 1.811804983652180734e-01 -1.584501705448447817e+00 -1.245240082247409258e-01 -1.339895111753255375e+00 1.178782732521615334e-01 -1.918891481233604424e-01 -3.160981583225802583e-01 0.000000000000000000e+00 0.000000000000000000e+00 0.000000000000000000e+00 2.065715517221514733e-15 6.351207528964788450e-16 0.000000000000000000e+00 4.391434008216671569e-15 -9.319820673574694325e-16 0.000000000000000000e+00 5.721975133772416500e-15 -9.811601869331560272e-16 -2.580724636655380639e-15 0.000000000000000000e+00 0.000000000000000000e+00 0.000000000000000000e+00 0.000000000000000000e+00 4.735597607301915364e-15 8.409221299976528592e-15 0.000000000000000000e+00 4.860499775950354968e-15 2.393027326585727649e-14 5.721975133772416500e-15 -9.811601869331560272e-16 -2.580724636655380639e-15 0.000000000000000000e+00 2.845797634484270791e-16 4.388409211743285565e-15 0.000000000000000000e+00 -2.251497284566882722e-16 2.319796864310121930e-15 0.000000000000000000e+00 6.746085059181037775e-15 2.195926038656830766e-14 5.721975133772416500e-15 -9.811601869331560272e-16 -2.580724636655380639e-15 0.000000000000000000e+00 0.000000000000000000e+00 0.000000000000000000e+00 0.000000000000000000e+00 2.173909938824847585e-15 4.938474345231610316e-15 0.000000000000000000e+00 2.008752051541996743e-16 1.158150683508957802e-15 5.721975133772416500e-15 -9.811601869331560272e-16 -2.580724636655380639e-15 0.000000000000000000e+00 0.000000000000000000e+00 0.000000000000000000e+00 0.000000000000000000e+00 2.109227801775359631e-15 2.178720355387160277e-15 0.000000000000000000e+00 -4.782618561920439929e-15 -1.995472959978272878e-14 4.455701092973523431e-02 3.152719943887624318e-03 9.942004771074731961e-02 5.523230471774205341e-01 4.109108460183758527e-01 -8.327076494761350700e-01 9.865670830300043992e-01 -1.948885601377534194e+00 1.163431408777719334e+00 -1.181382733746635660e-01 1.792188716425646977e-01 2.698073694014531745e-02 0.000000000000000000e+00 0.000000000000000000e+00 0.000000000000000000e+00 -2.309059439837314198e-15 5.009353236146025813e-15 0.000000000000000000e+00 -3.815869335971237205e-15 -2.237703847132741222e-15 0.000000000000000000e+00 7.755874070248041142e-16 -2.442557621581993126e-15 -1.119262502505945360e-15 0.000000000000000000e+00 0.000000000000000000e+00 0.000000000000000000e+00 0.000000000000000000e+00 -2.276327489164211151e-16 -8.196671273583760873e-15 0.000000000000000000e+00 3.489573720675745097e-15 -1.385111132770525029e-14 7.755874070248041142e-16 -2.442557621581993126e-15 -1.119262502505945360e-15 0.000000000000000000e+00 -2.173490702369713325e-15 -1.467946986579093117e-15 0.000000000000000000e+00 -1.003966248983497017e-15 -4.600828785295209579e-15 0.000000000000000000e+00 4.066956922131656078e-16 -9.893775829979244647e-15 7.755874070248041142e-16 -2.442557621581993126e-15 -1.119262502505945360e-15 0.000000000000000000e+00 0.000000000000000000e+00 0.000000000000000000e+00 0.000000000000000000e+00 1.289906624127267114e-15 -2.652830008046455541e-15 0.000000000000000000e+00 3.479215394350280158e-15 -1.202822980295251887e-14 7.755874070248041142e-16 -2.442557621581993126e-15 -1.119262502505945360e-15 0.000000000000000000e+00 0.000000000000000000e+00 0.000000000000000000e+00 0.000000000000000000e+00 1.497884440923433264e-15 -4.116471911886207508e-15 0.000000000000000000e+00 1.836008654796622463e-15 -1.211689907475198716e-14
